<?xml version="1.0" standalone="no"?>
<!DOCTYPE svg PUBLIC "-//W3C//DTD SVG 20010904//EN"
 "http://www.w3.org/TR/2001/REC-SVG-20010904/DTD/svg10.dtd">
<svg version="1.0" xmlns="http://www.w3.org/2000/svg"
 width="1024.000000pt" height="1024.000000pt" viewBox="0 0 1024.000000 1024.000000"
 preserveAspectRatio="xMidYMid meet">

  <!-- Gold layer underneath - shows through all holes in the black compound path -->
  <rect width="1024" height="1024" fill="#D4A017"/>

  <g transform="translate(0.000000,1024.000000) scale(0.100000,-0.100000)"
fill="#000000" stroke="none">
    <path d="M0 5120 l0 -5120 5120 0 5120 0 0 5120 0 5120 -5120 0 -5120 0 0
-5120z m5311 3741 c31 -12 77 -36 102 -54 25 -18 185 -168 354 -334 169 -165
344 -333 388 -373 44 -39 120 -114 169 -166 49 -52 150 -151 225 -221 151
-140 536 -510 821 -788 102 -99 248 -242 325 -316 77 -74 304 -295 505 -491
201 -195 389 -375 418 -399 76 -63 166 -156 207 -215 118 -167 120 -415 7
-589 -25 -39 -151 -169 -353 -365 -173 -167 -384 -374 -469 -460 -165 -166
-631 -619 -1020 -990 -129 -124 -327 -315 -440 -425 -187 -182 -348 -338 -625
-607 -55 -53 -184 -179 -286 -278 -103 -100 -205 -195 -227 -211 -60 -44 -148
-76 -245 -90 -74 -11 -96 -11 -164 4 -43 9 -112 33 -153 54 -84 41 -104 60
-780 728 -206 204 -679 666 -1050 1027 -371 360 -887 866 -1147 1124 -521 518
-515 510 -548 670 -20 97 -13 189 21 289 37 106 103 193 235 309 24 22 227
216 450 433 223 216 434 414 469 440 35 26 103 93 151 148 90 103 1245 1221
1534 1485 57 52 122 118 143 145 37 47 77 86 356 349 172 163 254 198 451 192
93 -2 133 -8 176 -25z"/>
    <path d="M4994 8782 c-86 -26 -153 -71 -234 -160 -81 -88 -84 -79 38 -168 40
-30 213 -192 385 -361 288 -283 409 -401 637 -621 l85 -82 -266 0 -267 0 -184
178 c-317 306 -642 615 -705 669 l-60 52 -30 -22 c-51 -38 -180 -158 -281
-262 -216 -222 -406 -409 -796 -780 -225 -215 -488 -469 -585 -566 -97 -97
-254 -251 -350 -342 l-174 -166 382 -383 382 -383 -277 -272 -278 -272 -216
212 c-444 437 -552 542 -560 542 -24 0 -149 -128 -177 -182 -73 -137 -72 -306
4 -426 14 -22 156 -169 316 -326 160 -157 388 -383 507 -501 118 -118 517
-508 885 -866 369 -358 895 -872 1170 -1143 363 -358 514 -499 550 -518 133
-69 275 -70 412 -3 49 24 85 55 168 143 58 61 105 115 105 118 0 5 -861 855
-1890 1867 l-195 191 535 1 535 0 190 -186 c105 -103 379 -374 610 -603 231
-229 445 -437 475 -461 30 -24 107 -95 172 -158 64 -63 121 -113 126 -111 23
9 252 223 447 418 l210 211 -56 57 c-31 32 -224 231 -429 443 l-373 385 655 3
656 2 118 -120 119 -120 188 175 c103 97 187 180 187 184 0 5 88 99 195 209
107 110 195 204 195 210 0 9 -416 415 -622 608 -54 50 -98 94 -98 99 0 13 252
265 265 265 6 0 50 -39 97 -87 88 -89 405 -402 555 -547 l82 -79 105 97 c90
83 112 109 143 174 37 74 38 78 37 187 0 91 -4 118 -22 158 -36 79 -79 134
-150 190 -68 55 -295 272 -717 686 -372 366 -1060 1030 -1200 1161 -44 40
-210 203 -370 360 -159 158 -346 338 -415 400 -69 63 -228 218 -355 345 -225
226 -232 232 -303 259 -95 37 -203 43 -288 18z m-1151 -1677 c12 -5 17 -18 17
-42 0 -30 -3 -34 -17 -28 -10 5 -45 10 -78 12 -77 5 -119 -18 -134 -74 -22
-79 25 -153 98 -153 67 0 82 9 79 44 -3 27 -7 31 -34 34 -25 2 -33 9 -37 27
-2 14 -2 27 1 30 3 3 36 5 74 5 l68 0 0 -86 0 -85 -37 -16 c-50 -21 -159 -21
-198 -1 -66 35 -95 87 -95 171 0 71 32 125 90 155 38 20 55 23 115 19 39 -3
78 -8 88 -12z m297 4 c55 -13 86 -40 94 -84 8 -41 -7 -84 -41 -111 l-26 -22
48 -66 47 -66 -45 0 c-45 0 -46 1 -84 60 -36 56 -69 80 -92 65 -6 -3 -11 -33
-11 -66 l0 -59 -40 0 -40 0 0 173 c0 96 3 177 7 180 10 11 133 8 183 -4z m712
-84 c58 -87 78 -109 78 -86 0 17 109 169 126 175 8 3 27 6 40 6 l24 0 0 -180
0 -180 -34 0 c-33 0 -35 2 -41 44 -4 23 -5 73 -3 110 1 36 0 66 -4 66 -6 0
-66 -87 -87 -127 -24 -46 -52 -29 -106 60 l-50 82 -3 -117 -3 -118 -34 0 -35
0 0 180 0 180 35 0 c33 0 38 -5 97 -95z m576 71 c16 -8 32 -23 36 -31 12 -32
6 -85 -12 -102 -17 -17 -17 -19 10 -45 20 -18 28 -36 28 -60 -1 -72 -52 -98
-190 -98 l-100 0 0 181 0 181 99 -5 c60 -4 111 -12 129 -21z m202 -126 l5
-145 40 -2 c22 -1 57 -2 78 -2 34 -1 37 -3 37 -31 l0 -30 -120 0 -120 0 0 173
c0 96 3 177 7 181 4 4 21 6 38 4 l30 -3 5 -145z m288 -32 l2 -178 -40 0 -40 0
0 173 c0 96 3 177 7 181 4 4 21 6 38 4 l30 -3 3 -177z m225 72 c43 -58 83
-106 88 -108 5 -2 9 43 9 106 0 107 0 109 23 107 12 -1 28 -3 35 -4 9 -1 12
-43 12 -176 l0 -175 -33 0 c-31 0 -40 8 -111 105 -43 58 -82 105 -87 105 -5 0
-9 -47 -9 -105 l0 -105 -35 0 -35 0 0 179 0 178 32 -1 c30 -1 41 -12 111 -106z
m503 99 c35 -9 44 -16 44 -33 0 -37 -13 -48 -44 -36 -46 17 -120 12 -149 -10
-31 -25 -51 -80 -42 -120 15 -68 72 -100 151 -86 32 7 35 10 32 39 -3 29 -6
32 -41 35 -35 3 -38 6 -35 30 3 26 4 27 73 27 l70 0 3 -86 3 -86 -48 -14 c-63
-18 -150 -16 -188 4 -59 30 -88 72 -93 131 -7 80 4 119 43 159 52 54 127 69
221 46z m-2063 -151 c89 -210 87 -198 40 -198 -35 0 -40 3 -52 35 l-12 35 -80
0 -79 0 -17 -35 c-15 -31 -21 -35 -55 -35 -21 0 -38 2 -38 5 0 8 46 116 85
200 17 39 38 87 45 108 13 35 17 37 56 37 l42 0 65 -152z m-313 -776 c91 -29
87 -22 79 -150 -4 -62 -8 -115 -10 -117 -2 -2 -35 7 -74 21 -221 75 -387 -42
-402 -283 -12 -206 66 -343 214 -373 65 -14 113 -8 206 24 l67 24 0 -123 0
-123 -27 -10 c-116 -44 -257 -49 -369 -14 -239 74 -372 308 -350 613 11 150
47 250 128 356 49 65 124 116 213 148 89 31 239 35 325 7z m1780 -5 l65 -22
-1 -118 c-1 -65 -4 -120 -6 -122 -2 -3 -31 5 -64 16 -84 30 -159 35 -226 15
-45 -13 -66 -26 -106 -71 -68 -74 -87 -131 -86 -260 0 -137 20 -192 94 -266
46 -47 65 -58 108 -68 29 -6 64 -11 76 -11 22 0 160 38 199 55 16 7 17 -3 17
-117 l0 -125 -52 -17 c-298 -96 -572 26 -664 297 -32 94 -45 223 -34 335 27
251 136 407 335 477 96 34 249 35 345 2z m-2590 -557 l0 -570 -125 0 -125 0 0
570 0 570 125 0 125 0 0 -570z m1520 560 c190 -30 289 -143 298 -339 10 -203
-51 -322 -198 -390 -47 -22 -73 -26 -185 -31 l-130 -5 -3 -182 -2 -183 -120 0
-120 0 0 570 0 570 198 0 c108 0 226 -5 262 -10z m2215 -12 c25 -6 54 -25 77
-48 43 -46 68 -136 68 -252 1 -122 27 -171 115 -215 28 -14 52 -27 54 -29 9
-8 -30 -53 -51 -60 -41 -12 -80 -46 -95 -81 -7 -19 -18 -85 -24 -146 -15 -178
-39 -236 -113 -271 -42 -20 -128 -37 -137 -28 -4 4 -10 44 -14 90 l-6 82 26 0
c14 0 37 11 50 25 20 19 25 34 25 74 0 74 20 201 36 233 8 15 25 35 38 45 l23
18 -28 27 c-40 40 -57 99 -65 222 -5 96 -9 112 -30 133 -13 12 -35 23 -49 23
-25 0 -25 0 -25 91 l0 91 43 -7 c23 -4 60 -11 82 -17z m-541 -30 c16 -131 16
-126 -14 -133 -52 -11 -62 -34 -71 -162 -9 -135 -18 -165 -61 -210 l-31 -32
25 -20 c42 -34 58 -81 67 -206 10 -132 19 -150 82 -160 l39 -7 0 -84 0 -84
-60 0 c-69 0 -139 28 -170 68 -32 40 -51 119 -59 244 -8 136 -18 156 -97 198
-36 20 -50 33 -52 52 -3 22 5 30 49 55 82 44 90 61 105 222 10 102 19 153 35
186 32 68 100 112 176 114 30 1 32 -1 37 -41z m-1994 -1553 l0 -35 -60 0 -60
0 0 -155 0 -155 -40 0 -40 0 0 155 0 155 -60 0 -60 0 0 35 0 35 160 0 160 0 0
-35z m330 0 l0 -35 -90 0 -90 0 0 -40 0 -40 80 0 80 0 0 -35 0 -35 -80 0 -80
0 0 -45 0 -45 64 0 c103 0 126 -7 126 -41 l0 -29 -135 0 -135 0 0 190 0 190
130 0 130 0 0 -35z m353 -97 c30 -73 67 -159 81 -190 l26 -58 -43 0 c-40 0
-43 3 -59 40 l-17 40 -84 0 -84 0 -18 -40 c-17 -38 -21 -40 -61 -40 l-43 0 43
103 c24 56 61 141 82 189 l39 88 41 0 41 0 56 -132z m312 31 l67 -101 67 101
c64 98 67 101 104 101 l37 0 0 -190 0 -190 -35 0 -34 0 -3 126 -3 126 -55 -86
c-72 -112 -80 -112 -151 -4 l-54 82 -3 -122 -3 -122 -39 0 -40 0 0 190 0 190
39 0 c37 0 40 -2 106 -101z m-1525 -99 l0 -70 -665 0 -665 0 0 70 0 70 665 0
665 0 0 -70z m3320 0 l0 -70 -655 0 -655 0 0 70 0 70 655 0 655 0 0 -70z"/>
    <path d="M4030 7000 l0 -50 48 0 c35 0 54 5 65 18 38 42 5 82 -66 82 l-47 0 0
-50z"/>
    <path d="M5280 7010 c0 -40 0 -40 38 -40 41 0 82 23 82 45 0 21 -33 35 -79 35
l-41 0 0 -40z"/>
    <path d="M5280 6865 l0 -45 46 0 c58 0 84 14 84 45 0 31 -26 45 -84 45 l-46 0
0 -45z"/>
    <path d="M4451 6971 c-32 -75 -30 -81 29 -81 28 0 50 4 50 9 0 10 -50 121 -55
121 -1 0 -12 -22 -24 -49z"/>
    <path d="M4767 5934 c-9 -50 -9 -222 -1 -263 l7 -31 71 0 c81 0 127 18 160 63
17 23 21 43 21 102 0 118 -40 155 -176 163 l-76 4 -6 -38z"/>
    <path d="M5217 4462 c-15 -37 -27 -71 -27 -75 0 -4 25 -7 56 -7 63 0 61 -7 27
88 -11 28 -22 54 -25 57 -3 3 -17 -25 -31 -63z"/>
  </g>
</svg>
